<svg width="319" height="226" viewBox="0 0 319 226" fill="none" xmlns="http://www.w3.org/2000/svg">
<path fill-rule="evenodd" clip-rule="evenodd" d="M231.218 180H231.209C212.199 179.997 195.402 169.252 187.373 151.962L148.673 68.6097C145.469 61.7093 148.446 53.5091 155.323 50.2932C162.198 47.0773 170.373 50.0658 173.577 56.9675L212.277 140.319C215.798 147.902 222.876 152.43 231.213 152.432H231.218C239.553 152.432 246.631 147.906 250.154 140.326L265.195 107.96C268.401 101.059 276.576 98.0762 283.45 101.292C290.325 104.509 293.301 112.711 290.095 119.61L275.054 151.977C267.02 169.262 250.223 180 231.218 180" fill="white"/>
<path fill-rule="evenodd" clip-rule="evenodd" d="M231.36 179.035H231.351C231.263 179.035 231.178 179.026 231.091 179.025C222.518 191.192 208.3 198.745 193.008 198.745C175.058 198.745 158.558 188.364 150.973 172.296L143.69 156.871C140.469 150.049 132.26 147.1 125.353 150.28C118.448 153.46 115.461 161.57 118.681 168.39L125.963 183.814C138.062 209.44 164.378 226 193.008 226C221.637 226 247.953 209.44 260.052 183.814L275.385 151.338C267.315 168.423 250.446 179.035 231.36 179.035" fill="#FFAC26"/>
<path fill-rule="evenodd" clip-rule="evenodd" d="M269.037 0C249.954 0 232.412 10.9518 224.345 27.9085L191.385 97.3568L206.613 130L249.734 39.504C253.217 32.1827 260.795 27.4515 269.046 27.4515C276.471 27.4515 283.018 30.9721 287.007 37.1103C290.997 43.2484 291.486 50.5505 288.347 57.1471L264.093 108.122C267.362 101.252 275.697 98.2817 282.705 101.484C289.714 104.688 292.748 112.854 289.479 119.724L287.873 123.099L313.733 68.7481C320.893 53.7019 319.733 36.3608 310.631 22.3606C301.529 8.35897 285.983 0 269.037 0Z" fill="#00D9A7"/>
<path fill-rule="evenodd" clip-rule="evenodd" d="M125.464 150.778C132.341 147.578 140.515 150.545 143.725 157.407L96.859 57.1027C93.7793 50.5113 94.2589 43.2149 98.1742 37.0815C102.088 30.9481 108.513 27.4302 115.799 27.4302C123.889 27.4302 131.327 32.1605 134.743 39.4802L148.471 68.8867C145.265 62.0196 148.244 53.8605 155.124 50.6621C162 47.461 170.179 50.4345 173.385 57.3016L159.657 27.8951C151.746 10.9501 134.532 0 115.799 0C99.1787 0 83.9231 8.35249 74.9931 22.3432C66.0618 36.3326 64.9239 53.6603 71.9491 68.6947L118.816 169C115.612 162.136 118.587 153.978 125.464 150.778" fill="#FF5D42"/>
<path d="M22.1133 49.1404C24.3736 50.5021 28.9969 60.249 47.0449 53.548" stroke="#E04C3D" stroke-width="4.5" stroke-linecap="round"/>
<path fill-rule="evenodd" clip-rule="evenodd" d="M49.9648 53.6319C49.9648 55.1203 48.758 56.327 47.2694 56.327C45.7808 56.327 44.5742 55.1203 44.5742 53.6319C44.5742 52.1434 45.7808 50.937 47.2694 50.937C48.758 50.937 49.9648 52.1434 49.9648 53.6319" fill="#993828"/>
<path fill-rule="evenodd" clip-rule="evenodd" d="M48.3638 51.7956C48.3876 51.7972 48.5488 51.72 48.6877 51.6366C48.8348 51.5509 48.9923 51.4504 49.1538 51.3452L49.6636 51.0129C49.7551 50.9544 49.8494 50.8945 49.9618 50.8286L50.2289 50.6774L52.3332 49.4937C52.7827 49.2407 53.3695 49.3722 53.6437 49.7868C53.9053 50.1829 53.7875 50.6937 53.386 50.9597L53.3663 50.9723L51.3953 52.2692L51.1535 52.4292L50.9596 52.5783L50.5083 52.9394C50.3494 53.0661 50.1849 53.1953 50.0017 53.3284C49.8092 53.4622 49.6323 53.5976 49.2858 53.7561L48.8351 53.962C48.2217 54.2425 47.478 54.0112 47.1741 53.4451C46.8701 52.8793 47.1211 52.1925 47.7345 51.9123C47.9351 51.8207 48.1551 51.7841 48.3638 51.7956" fill="#FF9210"/>
<path d="M48.8418 52.078C48.8418 52.078 50.171 50.9942 50.8633 53.4074" stroke="#FF7606" stroke-width="1.35" stroke-linecap="round"/>
<path d="M47.7188 52.4454C47.7188 52.4454 49.2218 51.6405 49.7402 53.632" stroke="#FF9210" stroke-width="1.35" stroke-linecap="round"/>
<path fill-rule="evenodd" clip-rule="evenodd" d="M49.4325 52.7741C49.7203 53.6587 49.2366 54.6086 48.3523 54.8964C47.4677 55.1842 46.5174 54.7005 46.2296 53.8162C45.9418 52.9317 46.4255 51.9815 47.3099 51.6937C48.1944 51.4062 49.1447 51.8896 49.4325 52.7741" fill="#FF9210"/>
<path d="M4.36914 124.6L8.41211 123.028" stroke="#FFB900" stroke-width="4.05"/>
<path fill-rule="evenodd" clip-rule="evenodd" d="M6.54865 133.504L6.35489 128.353C6.34793 128.17 6.3986 127.988 6.50049 127.833C6.50049 127.833 6.99629 127.381 7.13744 127.21C7.30391 127.008 7.32089 126.724 7.24823 126.475L5.94483 122.003C5.87662 121.769 5.62746 121.632 5.38666 121.696L1.46502 122.741C1.124 122.836 0.927176 123.183 1.02517 123.514L4.06989 133.816C4.26281 134.469 4.96295 134.846 5.63415 134.658C6.16587 134.509 6.5364 134.042 6.54865 133.504" fill="#E8E8E8"/>
<path fill-rule="evenodd" clip-rule="evenodd" d="M3.98083 135.056L1.01035 123.63C0.9673 123.464 1.06248 123.293 1.22275 123.248L2.01555 123.028L5.04178 135.017C5.06227 135.117 4.81434 135.329 4.52388 135.368C4.2202 135.408 4.05681 135.363 3.98083 135.056" fill="#FF5D42"/>
<path d="M6.16602 126.397L6.39062 127.744" stroke="#FF5D42" stroke-width="0.5" stroke-linecap="round"/>
<path d="M5.7168 127.744L5.94141 129.092" stroke="#FF5D42" stroke-width="0.5" stroke-linecap="round"/>
<path d="M21.9877 76.3148C25.6668 87.2236 33.9622 106.194 32.2037 108.046C28.9469 111.476 24.2437 114.541 11.332 121.905" stroke="#162856" stroke-width="8.1" stroke-linecap="round"/>
<path d="M14.5889 136.728V143.914" stroke="#FFB900" stroke-width="4.05"/>
<path fill-rule="evenodd" clip-rule="evenodd" d="M19.1909 143.253C18.6304 143.119 17.9701 142.755 17.5767 142.335L17.5436 142.299C17.1347 141.763 16.8999 141.668 16.6555 141.668H12.2158C11.9759 141.668 11.7812 141.862 11.7812 142.101V145.77C11.7812 146.109 12.0578 146.385 12.3984 146.385H22.9842C23.4722 146.385 23.8934 146.098 24.0862 145.684C24.2047 145.43 24.2049 144.235 22.9013 143.952C21.1205 143.566 20.2271 143.503 19.1909 143.253" fill="#E8E8E8"/>
<path fill-rule="evenodd" clip-rule="evenodd" d="M23.8311 146.609H12.3432C12.033 146.609 11.7812 146.294 11.7812 145.906V145.486L24.0501 145.497C24.2008 145.497 24.1043 146.267 24.1043 146.267C24.1043 146.456 23.9818 146.609 23.8311 146.609" fill="#FF5D42"/>
<path fill-rule="evenodd" clip-rule="evenodd" d="M14.252 143.353C14.252 143.787 13.9 144.139 13.4658 144.139C13.0316 144.139 12.6797 143.787 12.6797 143.353C12.6797 142.919 13.0316 142.567 13.4658 142.567C13.9 142.567 14.252 142.919 14.252 143.353" fill="#FF5D42"/>
<path d="M14.252 77.2133C14.8087 95.7002 22.6031 95.2894 14.9479 133.359" stroke="#1C2E7A" stroke-width="8.55" stroke-linecap="round"/>
<path d="M16.498 142.23H18.0703" stroke="#FF5D42" stroke-width="0.5" stroke-linecap="round"/>
<path d="M18.0703 143.128H19.6426" stroke="#FF5D42" stroke-width="0.5" stroke-linecap="round"/>
<path fill-rule="evenodd" clip-rule="evenodd" d="M27.2793 74.1445C27.2793 78.9436 23.8949 81.9294 19.5613 81.9294C14.7683 81.9294 10.8828 78.039 10.8828 73.2399C10.8828 68.4409 14.0252 65.5349 18.8182 65.5349C23.6111 65.5349 27.2793 69.3451 27.2793 74.1445" fill="#1C2E7A"/>
<path fill-rule="evenodd" clip-rule="evenodd" d="M27.9396 74.6274C27.9306 74.5706 27.9025 74.515 27.8827 74.4588L27.8877 74.4579C27.8877 74.4579 25.797 68.4122 25.6576 61.6972C25.6097 59.3897 25.4143 54.6343 25.5182 52.3282C25.7273 47.69 22.8658 44.8733 18.632 44.8733H16.5148C12.2812 44.8733 8.03954 48.0057 7.65987 55.0569C6.96296 68.0024 8.98399 76.9847 8.98399 76.9847L9.00099 76.9825C9.00239 76.9944 8.9996 77.0074 9.00155 77.0193C9.27 78.7187 14.4213 80.2564 19.4407 79.4739C24.4598 78.6913 28.208 76.3271 27.9396 74.6274" fill="#FF5D42"/>
<path fill-rule="evenodd" clip-rule="evenodd" d="M10.9976 58.5465C12.7947 47.9239 16.498 44.8733 16.498 44.8733C14.5899 44.8733 12.65 45.5198 11.0873 46.886C9.20767 48.53 7.86473 51.215 7.65881 55.0665C6.96686 68.0167 8.97379 77.0019 8.97379 77.0019L8.9904 76.9997C8.99178 77.0116 8.98901 77.0244 8.99095 77.0366C9.13571 77.9606 10.7128 78.8368 12.9223 79.3182C13.797 79.5091 14.7701 79.6531 15.7942 79.6836C15.8584 79.6855 14.575 77.4086 12.7504 74.6358C10.8822 71.7965 9.89048 65.0907 10.9976 58.5465" fill="#E04C3D"/>
<path fill-rule="evenodd" clip-rule="evenodd" d="M18.9729 48.4666C20.6559 48.4666 22.0262 47.2443 22.1133 45.7075C21.0633 45.3172 19.9413 45.0979 18.8189 45.0979H16.6365C16.3748 45.0979 16.1159 45.1109 15.8604 45.1341C15.8389 45.2712 15.8242 45.4108 15.8242 45.5536C15.8242 47.1624 17.2339 48.4666 18.9729 48.4666" fill="#993828"/>
<path d="M19.0811 40.8308V44.8733" stroke="#FF9210" stroke-width="3.6" stroke-linecap="round" stroke-linejoin="round"/>
<path fill-rule="evenodd" clip-rule="evenodd" d="M25.707 38.5307C25.707 41.8497 22.9686 44.1995 19.6192 44.1995C16.2698 44.1995 13.5781 41.8497 13.5781 38.5307C13.5781 35.2116 16.2933 32.5212 19.6427 32.5212C22.9921 32.5212 25.707 35.2116 25.707 38.5307" fill="#FF9210"/>
<path fill-rule="evenodd" clip-rule="evenodd" d="M17.7964 43.975C17.7964 43.975 15.3438 43.5616 13.7362 42.2523C11.7578 40.641 11.0393 39.229 11.1125 37.0499C11.2188 33.8802 14.2649 31.5925 17.359 31.8704C18.0622 31.9338 17.7964 43.975 17.7964 43.975" fill="#1C2E7A"/>
<path fill-rule="evenodd" clip-rule="evenodd" d="M18.7441 37.0131C18.7441 38.7496 17.2358 40.1571 15.375 40.1571C13.5142 40.1571 12.0059 38.7496 12.0059 37.0131C12.0059 35.2765 13.5142 33.8688 15.375 33.8688C17.2358 33.8688 18.7441 35.2765 18.7441 37.0131" fill="#1C2E7A"/>
<path d="M24.1348 40.5917C23.7792 40.8908 22.036 41.1694 21.4395 39.7079" stroke="#1C2E7A" stroke-width="0.5" stroke-linecap="round" stroke-linejoin="round"/>
<path d="M23.6855 38.8081L24.3594 38.5864" stroke="#FF4229" stroke-width="0.5004" stroke-linecap="round" stroke-linejoin="round"/>
<path d="M22.7871 37.462L23.4609 38.8095" stroke="#FF4229" stroke-width="0.5004" stroke-linecap="round" stroke-linejoin="round"/>
<path fill-rule="evenodd" clip-rule="evenodd" d="M18.1422 39.3103C18.486 39.9699 18.2297 40.7838 17.5695 41.1273C16.9098 41.471 16.0961 41.2148 15.7523 40.5546C15.4085 39.8947 15.6648 39.0813 16.3251 38.7376C16.985 38.3938 17.7987 38.6504 18.1422 39.3103" fill="#FF9210"/>
<path d="M15.1504 32.1961C15.1504 32.1961 20.959 33.6225 22.7871 30.5" stroke="#1C2E7A" stroke-width="3.6" stroke-linecap="round" stroke-linejoin="round"/>
<path d="M13.1289 48.9158C6.54549 52.1992 3.79592 55.9686 2.81262 61.0919C1.37133 68.6006 6.88294 74.2936 6.88294 74.2936" stroke="#FF5D42" stroke-width="4.95" stroke-linecap="round" stroke-linejoin="round"/>
<path fill-rule="evenodd" clip-rule="evenodd" d="M10.8808 74.8618C10.8152 76.8452 9.15361 78.4 7.16986 78.334C5.18638 78.2681 3.63141 76.6071 3.69733 74.6237C3.76298 72.6402 5.42453 71.0858 7.40801 71.1514C9.39176 71.2173 10.9465 72.8783 10.8808 74.8618" fill="#993828"/>
<path d="M11.1074 77.6624C10.8574 77.5996 8.2816 76.7879 7.73828 75.6411" stroke="#FF9210" stroke-width="3.15" stroke-linecap="round" stroke-linejoin="round"/>
<path fill-rule="evenodd" clip-rule="evenodd" d="M10.2078 75.7079C10.171 76.8237 9.2363 77.6981 8.12043 77.6612C7.00455 77.6241 6.13004 76.6898 6.16715 75.5741C6.20403 74.4583 7.1387 73.5839 8.25433 73.621C9.37021 73.6579 10.245 74.5922 10.2078 75.7079" fill="#FF9210"/>
<path d="M9.08594 74.9674C9.15565 74.9674 11.9905 75.3152 12.4551 75.6412" stroke="#FF9210" stroke-width="1.8" stroke-linecap="round"/>
<path d="M76.0195 167.271C75.999 167.248 73.998 174.008 73.998 174.008" stroke="#FFB900" stroke-width="3.6" stroke-linecap="round" stroke-linejoin="round"/>
<path d="M96.2344 109.553C96.2344 109.553 92.4456 115.257 86.018 134.299C83.5741 141.54 79.7041 153.986 76.4688 165.025" stroke="#162856" stroke-width="8.1" stroke-linecap="round"/>
<path fill-rule="evenodd" clip-rule="evenodd" d="M75.7774 176.277C75.6655 176.843 75.185 177.242 74.6277 177.135L65.8206 174.891C64.9507 174.653 64.1445 173.907 64.3819 173.191C64.7278 172.148 66.0085 172.126 68.3078 172.284C71.2744 172.488 72.2195 172.458 72.2195 172.458C72.2195 172.458 72.2152 173.266 73.7503 173.633C75.0774 173.95 76.4688 173.395 76.4688 173.395C76.4688 173.395 75.916 175.579 75.7774 176.277" fill="#FF5D42"/>
<path d="M102.234 162.105L102.139 176.03" stroke="#FFB900" stroke-width="3.6"/>
<path d="M100.685 115.392C97.7895 144.006 101.625 168.394 101.625 168.394" stroke="#1C2E7A" stroke-width="8.1" stroke-linecap="round"/>
<path fill-rule="evenodd" clip-rule="evenodd" d="M98.2559 178.5C98.2559 176.491 99.9652 175.131 102.074 175.131C104.183 175.131 105.893 176.491 105.893 178.5H98.2559Z" fill="#FF5D42"/>
<path d="M96.6836 87.0948C89.9577 90.3311 85.6777 90.0053 85.6777 90.0053" stroke="#EDEDED" stroke-width="5.4" stroke-linecap="round"/>
<path fill-rule="evenodd" clip-rule="evenodd" d="M70.4732 85.5074L70.8531 85.6738C70.9912 85.7348 71.1403 85.7925 71.2862 85.8511C71.579 85.9665 71.8804 86.078 72.1844 86.1819C72.4894 86.2861 72.7939 86.3897 73.1062 86.4808C73.4144 86.5785 73.727 86.6668 74.0418 86.7494C75.2974 87.0872 76.578 87.3486 77.8668 87.5446L78.8375 87.6707C79.1599 87.7166 79.4842 87.7494 79.8099 87.7746L80.7834 87.8598L81.7603 87.9068C82.4092 87.9525 83.0637 87.9315 83.7131 87.9441C84.3637 87.941 85.0151 87.9037 85.6635 87.8861L85.7894 87.8827C87.179 87.8458 88.3353 88.9463 88.3721 90.341C88.409 91.7354 87.3124 92.8959 85.923 92.9332C85.8449 92.9354 85.7634 92.9332 85.6869 92.9281C84.9568 92.8788 84.2281 92.8477 83.5013 92.7805C82.7751 92.6973 82.0489 92.646 81.3274 92.5267L80.2459 92.3668L79.1702 92.1665C78.8119 92.1026 78.4549 92.0309 78.0999 91.9452L77.0351 91.6993C75.6218 91.341 74.2271 90.9116 72.8587 90.3965C72.5162 90.2693 72.1754 90.1362 71.8374 89.992C71.4981 89.855 71.1617 89.7035 70.8263 89.5514C70.4905 89.3979 70.1575 89.2365 69.8232 89.0651C69.656 88.9785 69.4902 88.8945 69.3205 88.7993L69.0654 88.6575L68.781 88.4909C67.9666 88.0147 67.6914 86.9659 68.1662 86.1486C68.6071 85.3895 69.5402 85.097 70.3233 85.4416L70.4732 85.5074Z" fill="#FF9210"/>
<path fill-rule="evenodd" clip-rule="evenodd" d="M85.9512 87.7686C85.9512 87.7686 87.4488 89.3046 86.1734 91.425C85.6909 92.227 84.5547 92.4303 84.5547 92.4303C84.5547 92.4303 85.0583 92.5265 85.5199 92.4632C85.8656 92.4158 86.25 92.352 86.4145 92.2766C86.7981 92.1007 87.6005 91.8152 87.8825 90.4858C87.8825 90.4858 88.066 89.6635 87.6596 89.0154C87.2169 88.3096 86.9896 88.0541 85.9512 87.7686" fill="#FF7606"/>
<path d="M66.8105 83.0524C66.8679 83.1108 68.214 84.9279 68.832 85.0736" stroke="#FF7606" stroke-width="1.0602" stroke-linecap="round"/>
<path d="M65.2383 84.1753C65.4659 84.3579 66.7062 86.4357 68.832 86.1737" stroke="#FF7606" stroke-width="1.0602" stroke-linecap="round"/>
<path d="M65.9121 83.277C66.0949 83.3393 67.3738 85.5286 69.5059 85.2783" stroke="#FF7606" stroke-width="1.0602" stroke-linecap="round"/>
<path fill-rule="evenodd" clip-rule="evenodd" d="M70.8528 86.5285C70.82 87.7662 70.0861 88.6669 68.8045 88.6669C67.5228 88.6669 66.8105 87.8054 66.8105 86.5285C66.8105 85.2512 67.8347 84.5636 68.9895 84.6286C70.2562 84.6999 70.8783 85.563 70.8528 86.5285" fill="#FF9210"/>
<path d="M65.2383 85.2982C65.4492 85.4997 67.0112 87.5643 69.2812 87.2953" stroke="#FF9210" stroke-width="1.0602" stroke-linecap="round"/>
<path d="M68.832 83.5015C69.1568 83.9752 70.088 84.481 70.1797 85.5227" stroke="#FF9210" stroke-width="1.2069" stroke-linecap="round"/>
<path d="M104.244 75.6411C102.612 80.2451 106.304 92.9871 116 94.0569" stroke="#1C2E7A" stroke-width="9" stroke-linecap="round" stroke-linejoin="round"/>
<path fill-rule="evenodd" clip-rule="evenodd" d="M100.053 80.9188C100.053 83.3373 98.0917 85.2982 95.6729 85.2982C93.2538 85.2982 91.293 83.3373 91.293 80.9188C91.293 78.5003 93.2538 76.5394 95.6729 76.5394C98.0917 76.5394 100.053 78.5003 100.053 80.9188" fill="#1C2E7A"/>
<path fill-rule="evenodd" clip-rule="evenodd" d="M107.24 78.5606C107.24 81.7855 104.626 84.3999 101.4 84.3999C98.1753 84.3999 95.5605 81.7855 95.5605 78.5606C95.5605 75.336 98.1753 72.7216 101.4 72.7216C104.626 72.7216 107.24 75.336 107.24 78.5606" fill="#1C2E7A"/>
<path fill-rule="evenodd" clip-rule="evenodd" d="M106.342 113.371C106.342 117.216 103.21 120.333 99.3465 120.333C95.4835 120.333 92.7378 114.113 92.7378 110.268C92.7378 108.505 92.6406 108.204 92.6406 108.204C92.6406 108.204 97.2546 106.409 99.3465 106.409C103.21 106.409 106.342 109.526 106.342 113.371" fill="#1C2E7A"/>
<path fill-rule="evenodd" clip-rule="evenodd" d="M105.943 110.227L90.8438 108.572C90.8438 108.572 92.5097 99.1541 92.1325 89.7389C92.132 89.7255 92.964 88.7044 93.5642 87.7959C94.0955 86.9915 94.4297 86.4552 95.1415 85.6047C97.9363 82.2668 102.078 83.7505 103.497 84.3665C106.389 85.622 108.103 87.3681 107.897 92.1612C107.636 98.2499 105.943 110.227 105.943 110.227" fill="white"/>
<path d="M99.4912 79.9082V84.6244" stroke="#FF7606" stroke-width="3.6" stroke-linecap="round" stroke-linejoin="round"/>
<path fill-rule="evenodd" clip-rule="evenodd" d="M97.8066 92.7094C97.8066 94.6941 96.1976 96.3027 94.213 96.3027C92.2282 96.3027 90.6191 94.6941 90.6191 92.7094C90.6191 90.7247 92.2282 89.1161 94.213 89.1161C96.1976 89.1161 97.8066 90.7247 97.8066 92.7094" fill="white"/>
<path fill-rule="evenodd" clip-rule="evenodd" d="M105.888 110.015C105.744 111.616 102.322 112.862 97.6407 112.36C92.9594 111.857 90.707 110.042 90.8502 108.441C90.9937 106.841 93.504 105.81 98.1849 106.313C102.866 106.815 106.031 108.415 105.888 110.015" fill="white"/>
<path fill-rule="evenodd" clip-rule="evenodd" d="M93.0898 77.8325C93.0898 81.1518 95.8282 83.5015 99.1776 83.5015C102.527 83.5015 105.219 81.1518 105.219 77.8325C105.219 74.5135 102.504 71.8232 99.1542 71.8232C95.8048 71.8232 93.0898 74.5135 93.0898 77.8325" fill="#FF9210"/>
<path fill-rule="evenodd" clip-rule="evenodd" d="M100.502 74.2935C100.502 76.1539 102.011 77.6624 103.871 77.6624C105.732 77.6624 107.24 76.1539 107.24 74.2935C107.24 72.4331 105.732 70.9249 103.871 70.9249C102.011 70.9249 100.502 72.4331 100.502 74.2935" fill="#1C2E7A"/>
<path d="M94.6621 79.6692C95.0176 79.9681 96.7608 80.247 97.3574 78.7853" stroke="#1C2E7A" stroke-width="0.5" stroke-linecap="round" stroke-linejoin="round"/>
<path d="M94.8867 77.4042L94.2129 77.2469" stroke="#FF4229" stroke-width="0.5004" stroke-linecap="round" stroke-linejoin="round"/>
<path d="M95.5605 76.5394L95.3359 77.8869" stroke="#FF4229" stroke-width="0.5004" stroke-linecap="round" stroke-linejoin="round"/>
<path d="M103.197 71.8232C103.197 71.8232 100.233 68.8891 94.8867 71.6801" stroke="#1C2E7A" stroke-width="3.6" stroke-linecap="round" stroke-linejoin="round"/>
<path fill-rule="evenodd" clip-rule="evenodd" d="M103.35 78.3877C103.006 79.0476 103.262 79.8612 103.923 80.2047C104.583 80.5484 105.396 80.2921 105.74 79.632C106.084 78.9723 105.827 78.1587 105.167 77.815C104.507 77.4712 103.694 77.7278 103.35 78.3877" fill="#FF9210"/>
<path d="M72.2012 98.9977C72.2012 98.9977 73.4357 100.283 76.2441 100.103" stroke="#FF7606" stroke-width="1.70752" stroke-linecap="round"/>
<path d="M72.875 98.7732C72.875 98.7732 73.8197 99.5763 76.4688 99.4289" stroke="#FF7606" stroke-width="1.35" stroke-linecap="round"/>
<path fill-rule="evenodd" clip-rule="evenodd" d="M104.124 95.3931C104.003 95.5714 103.922 95.688 103.82 95.8278L103.53 96.2233C103.335 96.4813 103.135 96.7328 102.932 96.9822C102.53 97.4823 102.101 97.9574 101.666 98.4296C100.785 99.3614 99.8509 100.255 98.8278 101.074C97.8142 101.903 96.7104 102.654 95.518 103.316C94.3251 103.98 93.0139 104.514 91.5973 104.868C88.7472 105.539 85.9824 105.343 83.4195 104.698C80.8607 104.042 78.4887 102.942 76.4119 101.46C75.7482 100.986 75.5961 100.066 76.0724 99.4064C76.4664 98.8602 77.1664 98.6626 77.7727 98.8784L77.8029 98.8895C79.9402 99.6528 82.1021 100.228 84.2394 100.481C85.3061 100.605 86.3628 100.653 87.3848 100.598L87.7671 100.578L88.144 100.539C88.3966 100.518 88.6415 100.477 88.8867 100.44C89.3786 100.364 89.854 100.254 90.2854 100.118C92.0663 99.5438 93.8406 98.3778 95.5071 97.0269C96.3371 96.3417 97.1542 95.6102 97.9384 94.8355C98.3362 94.4539 98.7177 94.0536 99.1008 93.6573L99.6635 93.0561L100.184 92.4883L100.28 92.3834C101.192 91.3873 102.743 91.3152 103.744 92.2227C104.657 93.0496 104.797 94.4051 104.124 95.3931" fill="#FF9210"/>
<path fill-rule="evenodd" clip-rule="evenodd" d="M96.0098 96.591L98.423 101.019C98.423 101.019 99.2168 100.318 99.4495 100.092C99.6087 99.9367 100.053 99.5372 100.053 99.5372L96.9187 95.629L96.0098 96.591Z" fill="#FF7606"/>
<path fill-rule="evenodd" clip-rule="evenodd" d="M101.081 100.171C100.861 100.427 100.466 100.397 100.287 100.109C99.9363 99.5471 99.2875 98.6476 98.2527 97.7021C97.5819 97.0892 96.9489 96.702 96.5089 96.4755C96.2162 96.3246 96.1437 95.9363 96.3589 95.6834C98.1622 93.5672 100.589 90.0776 101.408 88.8837C101.567 88.6528 101.876 88.5984 102.102 88.7589L106.574 91.9269C106.802 92.0891 106.86 92.4087 106.701 92.6421C105.826 93.9184 103.163 97.7516 101.081 100.171" fill="white"/>
<path fill-rule="evenodd" clip-rule="evenodd" d="M78.9384 99.9772C78.9036 101.141 78.3449 101.688 77.1498 101.868C75.7261 102.083 74.7105 101.543 74.2512 101.295C73.5204 100.901 73.0994 99.6637 74.3252 99.6998C77.6756 99.7986 78.1102 98.324 78.1102 98.324C78.1102 98.324 78.9733 98.8134 78.9384 99.9772" fill="#FF9210"/>
<path d="M71.3027 98.7732C74.1123 101.202 76.2441 100.764 76.2441 100.764" stroke="#FF9210" stroke-width="1.2807" stroke-linecap="round"/>
<path d="M74.8965 97.4257C75.445 97.5624 77.3138 98.3309 77.8164 99.4469" stroke="#FF9210" stroke-width="1.2807" stroke-linecap="round"/>
</svg>
